<mxfile host="app.diagrams.net" modified="2024-06-12T15:40:11.785Z" agent="Mozilla/5.0 (Macintosh; Intel Mac OS X 10_15_7) AppleWebKit/537.36 (KHTML, like Gecko) Chrome/123.0.0.0 Safari/537.36" etag="-Xxw5-AJHsXdITu8yyBD" version="24.3.1" type="device">
  <diagram name="第 1 页" id="naWwAU6ttqKDUAambhte">
    <mxGraphModel dx="954" dy="615" grid="0" gridSize="10" guides="1" tooltips="1" connect="1" arrows="1" fold="1" page="1" pageScale="1" pageWidth="1654" pageHeight="1169" math="0" shadow="0">
      <root>
        <mxCell id="0" />
        <mxCell id="1" parent="0" />
        <mxCell id="U4aOv4KHRuSzYrQDEgQA-8" style="edgeStyle=orthogonalEdgeStyle;rounded=0;orthogonalLoop=1;jettySize=auto;html=1;exitX=1;exitY=0.5;exitDx=0;exitDy=0;entryX=0;entryY=0.5;entryDx=0;entryDy=0;" edge="1" parent="1" source="U4aOv4KHRuSzYrQDEgQA-1" target="U4aOv4KHRuSzYrQDEgQA-2">
          <mxGeometry relative="1" as="geometry" />
        </mxCell>
        <mxCell id="U4aOv4KHRuSzYrQDEgQA-1" value="鏡頭持續錄影" style="rounded=1;whiteSpace=wrap;html=1;fillColor=#d5e8d4;strokeColor=#82b366;" vertex="1" parent="1">
          <mxGeometry x="280" y="250" width="100" height="40" as="geometry" />
        </mxCell>
        <mxCell id="U4aOv4KHRuSzYrQDEgQA-9" style="edgeStyle=orthogonalEdgeStyle;rounded=0;orthogonalLoop=1;jettySize=auto;html=1;exitX=1;exitY=0.5;exitDx=0;exitDy=0;entryX=0;entryY=0.5;entryDx=0;entryDy=0;" edge="1" parent="1" source="U4aOv4KHRuSzYrQDEgQA-2" target="U4aOv4KHRuSzYrQDEgQA-4">
          <mxGeometry relative="1" as="geometry" />
        </mxCell>
        <mxCell id="U4aOv4KHRuSzYrQDEgQA-2" value="人臉偵測" style="rounded=1;whiteSpace=wrap;html=1;fillColor=#d5e8d4;strokeColor=#82b366;" vertex="1" parent="1">
          <mxGeometry x="430" y="250" width="100" height="40" as="geometry" />
        </mxCell>
        <mxCell id="U4aOv4KHRuSzYrQDEgQA-24" style="edgeStyle=orthogonalEdgeStyle;rounded=0;orthogonalLoop=1;jettySize=auto;html=1;entryX=0.5;entryY=0;entryDx=0;entryDy=0;dashed=1;" edge="1" parent="1" source="U4aOv4KHRuSzYrQDEgQA-3" target="U4aOv4KHRuSzYrQDEgQA-1">
          <mxGeometry relative="1" as="geometry" />
        </mxCell>
        <mxCell id="U4aOv4KHRuSzYrQDEgQA-3" value="匯入相片訓練模型" style="rounded=1;whiteSpace=wrap;html=1;fillColor=#d5e8d4;strokeColor=#82b366;" vertex="1" parent="1">
          <mxGeometry x="275" y="165" width="110" height="40" as="geometry" />
        </mxCell>
        <mxCell id="U4aOv4KHRuSzYrQDEgQA-11" style="edgeStyle=orthogonalEdgeStyle;rounded=0;orthogonalLoop=1;jettySize=auto;html=1;exitX=1;exitY=0.5;exitDx=0;exitDy=0;" edge="1" parent="1" source="U4aOv4KHRuSzYrQDEgQA-4" target="U4aOv4KHRuSzYrQDEgQA-5">
          <mxGeometry relative="1" as="geometry" />
        </mxCell>
        <mxCell id="U4aOv4KHRuSzYrQDEgQA-25" style="edgeStyle=orthogonalEdgeStyle;rounded=0;orthogonalLoop=1;jettySize=auto;html=1;exitX=0.5;exitY=0;exitDx=0;exitDy=0;entryX=0.5;entryY=1;entryDx=0;entryDy=0;" edge="1" parent="1" source="U4aOv4KHRuSzYrQDEgQA-4" target="U4aOv4KHRuSzYrQDEgQA-6">
          <mxGeometry relative="1" as="geometry" />
        </mxCell>
        <mxCell id="U4aOv4KHRuSzYrQDEgQA-4" value="人臉辨識" style="rhombus;whiteSpace=wrap;html=1;fillColor=#fff2cc;strokeColor=#d6b656;" vertex="1" parent="1">
          <mxGeometry x="580" y="240" width="110" height="60" as="geometry" />
        </mxCell>
        <mxCell id="U4aOv4KHRuSzYrQDEgQA-5" value="亮 LED 開門解鎖&lt;div&gt;(綠色人臉方框)&lt;/div&gt;" style="rounded=1;whiteSpace=wrap;html=1;fillColor=#d5e8d4;strokeColor=#82b366;" vertex="1" parent="1">
          <mxGeometry x="740" y="250" width="140" height="40" as="geometry" />
        </mxCell>
        <mxCell id="U4aOv4KHRuSzYrQDEgQA-6" value="發出 Line 訊息與蜂鳴器警告&lt;div&gt;(紅色人臉方框)&lt;br&gt;&lt;/div&gt;" style="rounded=1;whiteSpace=wrap;html=1;fillColor=#d5e8d4;strokeColor=#82b366;" vertex="1" parent="1">
          <mxGeometry x="551.25" y="160" width="167.5" height="50" as="geometry" />
        </mxCell>
        <mxCell id="U4aOv4KHRuSzYrQDEgQA-15" value="&lt;font style=&quot;font-size: 10px;&quot;&gt;在黑名單內&lt;/font&gt;" style="text;html=1;align=center;verticalAlign=middle;whiteSpace=wrap;rounded=0;" vertex="1" parent="1">
          <mxGeometry x="630" y="210" width="80" height="30" as="geometry" />
        </mxCell>
        <mxCell id="U4aOv4KHRuSzYrQDEgQA-16" value="&lt;font style=&quot;font-size: 10px;&quot;&gt;在白名單內&lt;/font&gt;" style="text;html=1;align=center;verticalAlign=middle;whiteSpace=wrap;rounded=0;" vertex="1" parent="1">
          <mxGeometry x="660" y="240" width="80" height="30" as="geometry" />
        </mxCell>
        <mxCell id="U4aOv4KHRuSzYrQDEgQA-26" value="訪客辨識" style="swimlane;whiteSpace=wrap;html=1;fillColor=#dae8fc;strokeColor=#6c8ebf;" vertex="1" parent="1">
          <mxGeometry x="250" y="120" width="650" height="200" as="geometry" />
        </mxCell>
        <mxCell id="U4aOv4KHRuSzYrQDEgQA-28" value="監視器" style="swimlane;whiteSpace=wrap;html=1;fillColor=#dae8fc;strokeColor=#6c8ebf;" vertex="1" parent="1">
          <mxGeometry x="250" y="360" width="650" height="100" as="geometry" />
        </mxCell>
        <mxCell id="U4aOv4KHRuSzYrQDEgQA-12" value="鏡頭持續錄影" style="rounded=1;whiteSpace=wrap;html=1;fillColor=#d5e8d4;strokeColor=#82b366;" vertex="1" parent="U4aOv4KHRuSzYrQDEgQA-28">
          <mxGeometry x="202.5" y="40" width="100" height="40" as="geometry" />
        </mxCell>
        <mxCell id="U4aOv4KHRuSzYrQDEgQA-14" style="edgeStyle=orthogonalEdgeStyle;rounded=0;orthogonalLoop=1;jettySize=auto;html=1;exitX=1;exitY=0.5;exitDx=0;exitDy=0;" edge="1" parent="U4aOv4KHRuSzYrQDEgQA-28" source="U4aOv4KHRuSzYrQDEgQA-12" target="U4aOv4KHRuSzYrQDEgQA-13">
          <mxGeometry relative="1" as="geometry" />
        </mxCell>
        <mxCell id="U4aOv4KHRuSzYrQDEgQA-13" value="影片編碼並串流至 YouTube" style="rounded=1;whiteSpace=wrap;html=1;fillColor=#d5e8d4;strokeColor=#82b366;" vertex="1" parent="U4aOv4KHRuSzYrQDEgQA-28">
          <mxGeometry x="347.5" y="40" width="110" height="40" as="geometry" />
        </mxCell>
        <mxCell id="U4aOv4KHRuSzYrQDEgQA-29" value="留言" style="swimlane;whiteSpace=wrap;html=1;fillColor=#dae8fc;strokeColor=#6c8ebf;" vertex="1" parent="1">
          <mxGeometry x="250" y="490" width="650" height="180" as="geometry" />
        </mxCell>
        <mxCell id="U4aOv4KHRuSzYrQDEgQA-19" style="edgeStyle=orthogonalEdgeStyle;rounded=0;orthogonalLoop=1;jettySize=auto;html=1;exitX=0.5;exitY=0;exitDx=0;exitDy=0;entryX=0.5;entryY=0;entryDx=0;entryDy=0;" edge="1" parent="U4aOv4KHRuSzYrQDEgQA-29" source="U4aOv4KHRuSzYrQDEgQA-17" target="U4aOv4KHRuSzYrQDEgQA-18">
          <mxGeometry relative="1" as="geometry" />
        </mxCell>
        <mxCell id="U4aOv4KHRuSzYrQDEgQA-17" value="訪客：&lt;div&gt;靠近系統並留言&lt;/div&gt;" style="rounded=1;whiteSpace=wrap;html=1;fillColor=#d5e8d4;strokeColor=#82b366;" vertex="1" parent="U4aOv4KHRuSzYrQDEgQA-29">
          <mxGeometry x="170" y="72" width="120" height="40" as="geometry" />
        </mxCell>
        <mxCell id="U4aOv4KHRuSzYrQDEgQA-20" style="edgeStyle=orthogonalEdgeStyle;rounded=0;orthogonalLoop=1;jettySize=auto;html=1;exitX=0.5;exitY=1;exitDx=0;exitDy=0;entryX=0.5;entryY=1;entryDx=0;entryDy=0;" edge="1" parent="U4aOv4KHRuSzYrQDEgQA-29" source="U4aOv4KHRuSzYrQDEgQA-18" target="U4aOv4KHRuSzYrQDEgQA-17">
          <mxGeometry relative="1" as="geometry" />
        </mxCell>
        <mxCell id="U4aOv4KHRuSzYrQDEgQA-18" value="使用者：&lt;div&gt;Line 聊天室留言&lt;/div&gt;" style="rounded=1;whiteSpace=wrap;html=1;fillColor=#d5e8d4;strokeColor=#82b366;" vertex="1" parent="U4aOv4KHRuSzYrQDEgQA-29">
          <mxGeometry x="360" y="72" width="120" height="40" as="geometry" />
        </mxCell>
        <mxCell id="U4aOv4KHRuSzYrQDEgQA-21" value="&lt;font style=&quot;font-size: 10px;&quot;&gt;語音轉文字上傳 Line&lt;/font&gt;" style="text;html=1;align=center;verticalAlign=middle;whiteSpace=wrap;rounded=0;" vertex="1" parent="U4aOv4KHRuSzYrQDEgQA-29">
          <mxGeometry x="280" y="22" width="100" height="30" as="geometry" />
        </mxCell>
        <mxCell id="U4aOv4KHRuSzYrQDEgQA-23" value="&lt;span style=&quot;font-size: 10px;&quot;&gt;文字轉語音&lt;/span&gt;&lt;div&gt;&lt;span style=&quot;font-size: 10px;&quot;&gt;透過喇叭在門口播放&lt;/span&gt;&lt;/div&gt;" style="text;html=1;align=center;verticalAlign=middle;whiteSpace=wrap;rounded=0;" vertex="1" parent="U4aOv4KHRuSzYrQDEgQA-29">
          <mxGeometry x="280" y="137" width="100" height="30" as="geometry" />
        </mxCell>
      </root>
    </mxGraphModel>
  </diagram>
</mxfile>
